<?xml version="1.0" encoding="utf-8"?>
<!-- Generator: Adobe Illustrator 16.0.2, SVG Export Plug-In . SVG Version: 6.00 Build 0)  -->
<!DOCTYPE svg PUBLIC "-//W3C//DTD SVG 1.1//EN" "http://www.w3.org/Graphics/SVG/1.1/DTD/svg11.dtd">
<svg version="1.1" id="Layer_1" xmlns="http://www.w3.org/2000/svg" xmlns:xlink="http://www.w3.org/1999/xlink" x="0px" y="0px"
	viewBox="0 0 116.4 20.4" enable-background="new 0 0 116.4 20.4" xml:space="preserve">
	<g>
		<defs>
			<path id="SVGID_1_" d="M15.6,9.3V5.1c0-3.6,0-3.8-1.2-3.9l-1.1-0.1V0.4h7.2v0.7l-1.1,0.1c-1.2,0.1-1.2,0.3-1.2,3.9v10.4
				c0,3.6,0,3.8,1.2,3.9l1.1,0.1v0.7h-7.2v-0.7l1.1-0.1c1.2-0.1,1.2-0.3,1.2-3.9v-5.3 M5,10.1v5.3c0,3.6,0,3.8,1.2,3.9l1.1,0.1v0.7H0
				v-0.7l1.1-0.1c1.2-0.1,1.2-0.3,1.2-3.9V5.1c0-3.6,0-3.8-1.2-3.9L0,1.1V0.4h7.2v0.7l-1,0.1C5,1.3,5,1.4,5,5.1v4.2"/>
			</defs>
			<clipPath id="SVGID_2_">
				<use xlink:href="#SVGID_1_"  overflow="visible"/>
			</clipPath>
			<g clip-path="url(#SVGID_2_)">
				<defs>
					<rect id="SVGID_3_" x="-20" y="-1" width="864" height="112"/>
				</defs>
				<clipPath id="SVGID_4_">
					<use xlink:href="#SVGID_3_"  overflow="visible"/>
				</clipPath>
				<rect x="-5" y="-4.6" clip-path="url(#SVGID_4_)" fill="#5C6670" width="30.5" height="29.8"/>
			</g>
		</g>
		<g>
			<defs>
				<path id="SVGID_5_" d="M20.6,20.1h6.3v-0.6L25,19.2c-0.3,0-0.7-0.1-0.7-0.7c0-0.2,0.2-1,0.6-2l1.5-4.2l3.3-8.4l3.1,8.4L35,18
					c0.1,0.2,0.2,0.4,0.2,0.6c0,0.3-0.4,0.5-0.9,0.6L33,19.4V20h7.4v-0.6l-1.2-0.2c-0.8-0.1-1.1-0.8-1.5-2L30.9,0L30,0.3
					c-0.2,0.6-0.5,1.2-0.7,1.8l-6.2,15.1c-0.7,1.7-0.9,2.1-2,2.2l-0.6,0.1v0.6H20.6z"/>
				</defs>
				<clipPath id="SVGID_6_">
					<use xlink:href="#SVGID_5_"  overflow="visible"/>
				</clipPath>
				<g clip-path="url(#SVGID_6_)">
					<defs>
						<rect id="SVGID_7_" x="-20" y="-1" width="864" height="112"/>
					</defs>
					<clipPath id="SVGID_8_">
						<use xlink:href="#SVGID_7_"  overflow="visible"/>
					</clipPath>
					<rect x="15.5" y="-5" clip-path="url(#SVGID_8_)" fill="#5C6670" width="29.9" height="30.1"/>
				</g>
			</g>
			<g>
				<defs>
					<path id="SVGID_9_" d="M39.2,19.4l0.7-0.2c0.4-0.1,0.7-0.2,0.9-0.4c0.3-0.3,0.5-2.2,0.7-4.9L42,6.5c0.1-2,0.3-5.2,0.3-6l0.8-0.3
						c0.9,1.5,7.7,14.4,8.6,16c1-1.5,7.6-14.2,8.2-15.7l0.8-0.3c0,0.2,0.2,3.6,0.4,7.5l0.3,5.2c0.1,2.5,0.3,5.4,0.6,5.9
						c0.1,0.3,0.6,0.5,1.1,0.6l0.9,0.2v0.7h-7.6v-0.7l1.2-0.2c1.3-0.1,1.4-0.6,1.4-2c0-3.3-0.5-9.6-0.5-11.5h-0.1
						c-0.5,1.3-3.5,7.1-6.5,13c-0.1,0.3-0.3,0.7-0.4,1l-0.8,0.4c-0.7-1.4-4.4-8.6-6.5-12.6c-0.3-0.6-0.6-1.1-0.8-1.7h-0.1
						c-0.1,1.7-0.5,10.1-0.5,11c0,1.8,0,2.3,1.4,2.4l1.2,0.2v0.7h-6.2V19.4z"/>
					</defs>
					<clipPath id="SVGID_10_">
						<use xlink:href="#SVGID_9_"  overflow="visible"/>
					</clipPath>
					<g clip-path="url(#SVGID_10_)">
						<defs>
							<rect id="SVGID_11_" x="-20" y="-1" width="864" height="112"/>
						</defs>
						<clipPath id="SVGID_12_">
							<use xlink:href="#SVGID_11_"  overflow="visible"/>
						</clipPath>
						<rect x="34.2" y="-4.8" clip-path="url(#SVGID_12_)" fill="#5C6670" width="34.8" height="30.1"/>
					</g>
				</g>
				<g>
					<defs>
						<path id="SVGID_13_" d="M95.1,19.4l1.1-0.1c1.2-0.1,1.4-1,1.4-4.2V0.4l0.7-0.3c2.5,3.2,11.2,12.3,14.5,15.5V5.4
							c0-3.3,0-4.1-1.6-4.2L110,1.1V0.4h6.4v0.7l-1.1,0.1c-1.1,0.1-1.3,1-1.3,4.2v14.7l-0.7,0.3c-0.7-0.7-2.5-2.7-5.6-5.8l-8.9-9.4v10
							c0,3.3,0,4.1,1.5,4.2l1.1,0.1v0.7H95v-0.8H95.1z"/>
						</defs>
						<clipPath id="SVGID_14_">
							<use xlink:href="#SVGID_13_"  overflow="visible"/>
						</clipPath>
						<g clip-path="url(#SVGID_14_)">
							<defs>
								<rect id="SVGID_15_" x="-20" y="-1" width="864" height="112"/>
							</defs>
							<clipPath id="SVGID_16_">
								<use xlink:href="#SVGID_15_"  overflow="visible"/>
							</clipPath>
							<rect x="90" y="-4.9" clip-path="url(#SVGID_16_)" fill="#5C6670" width="31.4" height="30.3"/>
						</g>
					</g>
					<g>
						<defs>
							<path id="SVGID_17_" d="M7.6,12.2c1.1,0.7,2.4,1.4,4.2,1.7c3.2,0.2,6-0.7,9-1.1c2.2-0.3,4.4-0.4,6.6-0.3c1.8,0.2,3.4,0.7,4.9,1.1
								c-0.8-0.4-1.7-0.7-2.5-1.1c0.9,0.4,1.7,0.9,2.8,1.2c-0.8-0.4-1.7-0.7-2.5-1.1c0.9,0.4,1.8,0.8,2.6,1.1l-2.6-1.1c0,0,0,0-0.1,0
								c0.8,0.4,1.7,0.7,2.5,1.1c-0.9-0.4-1.7-0.9-2.8-1.2c0.8,0.4,1.7,0.7,2.5,1.1c-0.9-0.4-1.8-0.8-2.7-1.2c-1.6-0.4-3.1-0.9-4.8-1.1
								c-4.3-0.2-8.2,0.6-12.1,1.2c-1.5,0.2-3.5,0.4-4.8-0.2c0.8,0.4,1.7,0.7,2.5,1.1c-0.1,0-0.2-0.1-0.2-0.1L7.6,12.2z"/>
							</defs>
							<clipPath id="SVGID_18_">
								<use xlink:href="#SVGID_17_"  overflow="visible"/>
							</clipPath>
							<g clip-path="url(#SVGID_18_)">
								<defs>
									<rect id="SVGID_19_" x="-20" y="-1" width="864" height="112"/>
								</defs>
								<clipPath id="SVGID_20_">
									<use xlink:href="#SVGID_19_"  overflow="visible"/>
								</clipPath>
								<rect x="2.6" y="6.269" clip-path="url(#SVGID_20_)" fill="#5C6670" width="35.1" height="12.66"/>
							</g>
						</g>
						<g>
							<defs>
								<path id="SVGID_21_" d="M6.5,11.4c1.1,0.7,2.4,1.4,4.2,1.7c3.2,0.2,6-0.7,9-1.1c2.2-0.3,4.4-0.4,6.6-0.3c1.8,0.2,3.4,0.7,4.9,1.1
									c-0.8-0.4-1.7-0.7-2.5-1.1c0.9,0.4,1.7,0.9,2.8,1.2c-0.8-0.4-1.7-0.7-2.5-1.1c0.9,0.4,1.8,0.8,2.6,1.1L29,11.8c0,0,0,0-0.1,0
									c0.8,0.4,1.7,0.7,2.5,1.1c-0.9-0.4-1.7-0.9-2.8-1.2c0.8,0.4,1.7,0.7,2.5,1.1c-0.9-0.4-1.8-0.8-2.7-1.2c-1.6-0.4-3.1-0.9-4.8-1.1
									c-4.3-0.2-8.2,0.6-12.1,1.2C10,12,8,12.1,6.8,11.6c0.8,0.4,1.7,0.7,2.5,1.1c-0.1,0-0.2-0.1-0.2-0.1L6.5,11.4z"/>
								</defs>
								<clipPath id="SVGID_22_">
									<use xlink:href="#SVGID_21_"  overflow="visible"/>
								</clipPath>
								<g clip-path="url(#SVGID_22_)">
									<defs>
										<rect id="SVGID_23_" x="-20" y="-1" width="864" height="112"/>
									</defs>
									<clipPath id="SVGID_24_">
										<use xlink:href="#SVGID_23_"  overflow="visible"/>
									</clipPath>
									<rect x="1.5" y="5.469" clip-path="url(#SVGID_24_)" fill="#5C6670" width="35.1" height="12.66"/>
								</g>
							</g>
							<g>
								<defs>
									<polygon id="SVGID_25_" points="85.9,10.6 87.2,12.7 88.4,14.8 85.9,14.8 83.5,14.8 84.7,12.7 		"/>
								</defs>
								<clipPath id="SVGID_26_">
									<use xlink:href="#SVGID_25_"  overflow="visible"/>
								</clipPath>
								<g clip-path="url(#SVGID_26_)">
									<defs>
										<rect id="SVGID_27_" x="-20" y="-1" width="864" height="112"/>
									</defs>
									<clipPath id="SVGID_28_">
										<use xlink:href="#SVGID_27_"  overflow="visible"/>
									</clipPath>
									<rect x="78.5" y="5.6" clip-path="url(#SVGID_28_)" fill="#5C6670" width="14.9" height="14.2"/>
								</g>
							</g>
							<g>
								<defs>
									<path id="SVGID_29_" d="M63.9,19.4l1.1-0.1c1.2-0.1,1.2-0.3,1.2-3.9V5.1c0-3.6,0-3.8-1.2-3.9l-1.1-0.1V0.4h7.2v0.7L70,1.2
										c-1.2,0.1-1.2,0.3-1.2,3.9v13.8c1.1,0.2,2.2,0.4,3.2,0.4c4.4,0,4.8-1.6,5.9-4.2l0.8,0.1c-0.1,1.9-1.1,3.3-1.6,4.9H63.9V19.4z"/>
									</defs>
									<clipPath id="SVGID_30_">
										<use xlink:href="#SVGID_29_"  overflow="visible"/>
									</clipPath>
									<g clip-path="url(#SVGID_30_)">
										<defs>
											<rect id="SVGID_31_" x="-20" y="-1" width="864" height="112"/>
										</defs>
										<clipPath id="SVGID_32_">
											<use xlink:href="#SVGID_31_"  overflow="visible"/>
										</clipPath>
										<rect x="58.9" y="-4.6" clip-path="url(#SVGID_32_)" fill="#5C6670" width="24.8" height="29.7"/>
									</g>
								</g>
								<g>
									<defs>
										<path id="SVGID_33_" d="M78.1,20.1H83v-0.6l-1.8-0.2c-0.3,0-0.7-0.1-0.7-0.7c0-0.2,0.2-1,0.6-2l1.5-4.2L85.9,4l3.1,8.4l2.1,5.6
											c0.1,0.2,0.2,0.4,0.2,0.6c0,0.3-0.4,0.5-0.9,0.6L89,19.4V20h7.4v-0.6l-1.2-0.2c-0.8-0.1-1.1-0.8-1.5-2L87,0l-0.9,0.3
											c-0.2,0.6-0.5,1.2-0.7,1.8l-6.2,15.1c-0.7,1.7-0.9,2.3-0.9,2.3L78.1,20.1z"/>
										</defs>
										<clipPath id="SVGID_34_">
											<use xlink:href="#SVGID_33_"  overflow="visible"/>
										</clipPath>
										<g clip-path="url(#SVGID_34_)">
											<defs>
												<rect id="SVGID_35_" x="-20" y="-1" width="864" height="112"/>
											</defs>
											<clipPath id="SVGID_36_">
												<use xlink:href="#SVGID_35_"  overflow="visible"/>
											</clipPath>
											<rect x="73.1" y="-5" clip-path="url(#SVGID_36_)" fill="#5C6670" width="28.3" height="30.1"/>
										</g>
									</g>
								</svg>
